<?xml version="1.0" standalone="no"?>
<!DOCTYPE svg PUBLIC "-//W3C//DTD SVG 1.1//EN" "http://www.w3.org/Graphics/SVG/1.1/DTD/svg11.dtd" >
<svg xmlns="http://www.w3.org/2000/svg" xmlns:xlink="http://www.w3.org/1999/xlink" version="1.1">
<metadata>
Created by FontForge 20201107 at Wed Jan  7 19:43:20 1998
 By 
1999 Iconian Fonts - http://members.xoom.com/iconianfonts/
</metadata>
<defs>
<font id="PlanetN" horiz-adv-x="2254" >
  <font-face 
    font-family="Planet N"
    font-weight="400"
    font-stretch="normal"
    units-per-em="2050"
    panose-1="2 11 6 4 2 2 2 2 2 4"
    ascent="1640"
    descent="-410"
    x-height="1843"
    cap-height="1846"
    bbox="-31 -431 2908.03 2052.04"
    underline-thickness="150"
    underline-position="-292"
    unicode-range="U+0020-201E"
  />
<missing-glyph horiz-adv-x="1536" 
d="M256 0v1280h1024v-1280h-1024zM288 32h960v1216h-960v-1216z" />
    <glyph glyph-name=".notdef" horiz-adv-x="1536" 
d="M256 0v1280h1024v-1280h-1024zM288 32h960v1216h-960v-1216z" />
    <glyph glyph-name=".null" horiz-adv-x="0" 
 />
    <glyph glyph-name="nonmarkingreturn" horiz-adv-x="569" 
 />
    <glyph glyph-name="space" unicode=" " horiz-adv-x="1430" 
 />
    <glyph glyph-name="space" unicode="&#xa0;" horiz-adv-x="1430" 
 />
    <glyph glyph-name="exclam" unicode="!" horiz-adv-x="935" 
d="M174 533q160 0 160 -164t-167 -162q-167 3 -167 166q0 164 174 160zM0 1262v-378q8 -127 175 -125q145 -4 153 117v317v486q6 169 -161 166t-167 -168v-415z" />
    <glyph glyph-name="quotedbl" unicode="&#x22;" horiz-adv-x="1462" 
d="M717 1849q152 0 152 -152l-29 -143q-256 -616 -152 -8q-136 3 -136 154q0 152 165 149zM165 1849q152 0 152 -152l-29 -143q-256 -616 -152 -8q-136 3 -136 154q0 152 165 149z" />
    <glyph glyph-name="numbersign" unicode="#" horiz-adv-x="1139" 
 />
    <glyph glyph-name="dollar" unicode="$" horiz-adv-x="2253" 
d="M218 204l438 6v-176h312l6 166q432 7 587 227q77 111 77 271q0 243 -171.5 367.5t-346.5 120.5l-602 2q-138 0 -175 77q-16 33 -16 87q0 65 21 94t82 48q72 22 222 32h844q138 -2 138 162t-150 158h-64l-444 4v168h-312v-168q-432 -7 -587 -227q-77 -111 -77 -271
q0 -243 171.5 -367.5t346.5 -120.5l602 -2q138 0 175 -77q16 -33 16 -87q0 -65 -21 -94t-82 -48q-72 -22 -222 -32h-844q-138 2 -138 -162t150 -158h64z" />
    <glyph glyph-name="percent" unicode="%" horiz-adv-x="1821" 
 />
    <glyph glyph-name="ampersand" unicode="&#x26;" horiz-adv-x="1366" 
 />
    <glyph glyph-name="quotesingle" unicode="'" horiz-adv-x="934" 
d="M165 1849q152 0 152 -152l-29 -143q-256 -616 -152 -8q-136 3 -136 154q0 152 165 149z" />
    <glyph glyph-name="parenleft" unicode="(" horiz-adv-x="1414" 
d="M808 1530q-208 -14 -344 -152.5t-136 -353.5q0 -311 252 -436q112 -56 236 -50l3 -333q-368 0 -593.5 225.5t-225.5 593.5q0 369 225 594t583 232v-320z" />
    <glyph glyph-name="parenright" unicode=")" horiz-adv-x="1414" 
d="M0 1530q219 -14 355 -152.5t136 -353.5q0 -311 -252 -436q-112 -56 -236 -50l-3 -333q368 0 593.5 225.5t225.5 593.5q0 369 -225 594t-594 232v-320z" />
    <glyph glyph-name="asterisk" unicode="*" horiz-adv-x="2049" 
d="M0 986l69 211l491 -43q10 261 10 389h320q-6 -187 6 -389l477 43l94 -211q-280 -79 -555 -106q136 -101 386 -359l-269 -162q-134 151 -303 409q-168 -268 -296 -409l-263 162q256 271 373 359q-285 47 -540 106z" />
    <glyph glyph-name="plus" unicode="+" horiz-adv-x="918" 
d="M166 864q160 0 160 164t-167 162q-167 -3 -167 -166q0 -164 174 -160z" />
    <glyph glyph-name="comma" unicode="," horiz-adv-x="918" 
d="M165 521q152 0 152 -152l-29 -143q-256 -616 -152 -8q-136 3 -136 154q0 152 165 149z" />
    <glyph glyph-name="hyphen" unicode="-" horiz-adv-x="1578" 
d="M822 864q160 0 160 164t-167 162h-648q-167 -3 -167 -166q0 -164 174 -160h648z" />
    <glyph glyph-name="hyphen" unicode="&#xad;" horiz-adv-x="1578" 
d="M822 864q160 0 160 164t-167 162h-648q-167 -3 -167 -166q0 -164 174 -160h648z" />
    <glyph glyph-name="period" unicode="." horiz-adv-x="926" 
d="M165 521q152 0 152 -152q0 -153 -159 -151q-158 3 -158 154q0 152 165 149z" />
    <glyph glyph-name="slash" unicode="/" horiz-adv-x="2207" 
d="M1336 1850q-128 0 -188 -104l-1042 -1395q-82 -117 46 -141h104q136 -2 217 104l1090 1432q75 97 -83 104h-144z" />
    <glyph glyph-name="zero" unicode="0" horiz-adv-x="2246" 
d="M819 1843q371 0 595 -224t224 -595q0 -369 -225 -594t-594 -225q-368 0 -593.5 225.5t-225.5 593.5q0 369 225 594t594 225zM819 1516q-219 0 -355 -138.5t-136 -353.5q0 -311 252 -436q112 -56 239 -56q284 0 423 224q69 111 69 268q0 233 -152 368q-140 124 -340 124z
M822 864q160 0 160 164t-167 162q-167 -3 -167 -166q0 -164 174 -160z" />
    <glyph glyph-name="one" unicode="1" horiz-adv-x="1478" 
d="M860 598v802l-4 306q-32 152 -180 142l-516 2q-160 -7 -160 -170q0 -164 174 -160l242 2q116 0 116 -128v-1024q-4 -164 164 -160q172 -4 164 156v232z" />
    <glyph glyph-name="two" unicode="2" horiz-adv-x="2253" 
d="M792 870l-274 2q-138 0 -175 -77q-16 -33 -16 -87l-3 -174h1172q138 2 138 -162t-150 -158h-64h-1420v494q0 243 171.5 367.5t346.5 120.5l602 -1q138 0 175 77q16 33 16 87q0 65 -21 94t-82 48q-72 22 -228 21h-548h-290q-142 2 -142 166t150 162h826q430 0 585 -220
q77 -111 77 -271q0 -243 -171.5 -367.5t-346.5 -120.5z" />
    <glyph glyph-name="three" unicode="3" 
d="M778 864l528 2v-210q0 -120 -96 -118h-1068q-142 -2 -142 -166t150 -162h404l904 -2q176 0 176 192v1256q0 192 -168 192l-1324 2q-142 2 -142 -162t138 -162h212h120h740q96 -6 96 -118v-218h-535q-167 -3 -167 -166q0 -164 174 -160z" />
    <glyph glyph-name="four" unicode="4" horiz-adv-x="2246" 
d="M816 854h-652q-152 4 -164 95v553v245q0 100 167 101q167 0 161 -100v-446q0 -112 92 -112h395q167 2 167 -162t-166 -174zM1632 1278v402q0 163 -167 166q-167 2 -161 -164v-1311q-6 -166 161 -164q167 3 167 166v905z" />
    <glyph glyph-name="five" unicode="5" horiz-adv-x="2253" 
d="M792 1190l-274 -2q-138 0 -175 77q-16 33 -16 87l-3 174h1172q138 -2 138 162t-150 158h-64h-1420v-494q0 -243 171.5 -367.5t346.5 -120.5l602 1q138 0 175 -77q16 -33 16 -87q0 -65 -21 -94t-82 -48q-72 -22 -228 -21h-548h-290q-142 -2 -142 -166t150 -162h826
q430 0 585 220q77 111 77 271q0 243 -171.5 367.5t-346.5 120.5z" />
    <glyph glyph-name="six" unicode="6" horiz-adv-x="2250" 
d="M0 1155v-742q0 -203 184 -208h800q422 5 577 225q77 111 77 271q0 243 -171.5 367.5t-346.5 120.5h-338q-174 4 -174 -160q0 -163 167 -166l345 2q138 0 175 -77q16 -33 16 -87q0 -65 -21 -94t-82 -48q-72 -22 -228 -26h-540q-112 0 -112 120v536v493q6 166 -161 164
q-167 -3 -167 -166v-525z" />
    <glyph glyph-name="seven" unicode="7" horiz-adv-x="2250" 
d="M142 1515h612l424 2q128 3 128 -160v-493v-493q-6 -166 161 -164q167 3 167 166v1267q0 203 -184 208l-1192 -1l-108 -4q-150 2 -150 -162t142 -166z" />
    <glyph glyph-name="eight" unicode="8" horiz-adv-x="2258" 
d="M772 1190l348 -2q138 0 175 77q16 33 16 87q0 65 -21 94t-82 48q-72 22 -232 26h-314q-160 -4 -232 -26q-61 -19 -82 -48t-21 -94q0 -54 16 -87q37 -77 175 -77zM894 210l-232 -2q-430 2 -585 222q-77 111 -71 266q8 264 232 312q-224 56 -238 344q0 160 77 271
q155 220 581 225l214 2l108 -2q426 -5 581 -225q77 -111 77 -271q-14 -288 -238 -344q224 -48 232 -312q6 -155 -71 -266q-155 -220 -585 -222zM784 866l-266 -1q-138 0 -175 -77q-16 -33 -16 -87q0 -65 21 -94t82 -48q72 -13 232 -15h314q160 2 232 15q61 19 82 48t21 94
q0 54 -16 87q-37 77 -175 77z" />
    <glyph glyph-name="nine" unicode="9" horiz-adv-x="2250" 
d="M1638 898v742q0 203 -184 208h-800q-422 -5 -577 -225q-77 -111 -77 -271q0 -243 171.5 -367.5t346.5 -120.5h338q174 -4 174 160q0 163 -167 166l-345 -2q-138 0 -175 77q-16 33 -16 87q0 65 21 94t82 48q72 22 228 26h540q112 0 112 -120v-536v-493q-6 -166 161 -164
q167 3 167 166v525z" />
    <glyph glyph-name="colon" unicode=":" horiz-adv-x="926" 
d="M157 1513q152 0 152 -152q0 -153 -159 -151q-158 3 -158 154q0 152 165 149zM165 521q152 0 152 -152q0 -153 -159 -151q-158 3 -158 154q0 152 165 149z" />
    <glyph glyph-name="semicolon" unicode=";" horiz-adv-x="934" 
d="M157 1513q152 0 152 -152q0 -153 -159 -151q-158 3 -158 154q0 152 165 149zM165 521q152 0 152 -152l-29 -143q-256 -616 -152 -8q-136 3 -136 154q0 152 165 149z" />
    <glyph glyph-name="less" unicode="&#x3c;" horiz-adv-x="1196" 
 />
    <glyph glyph-name="equal" unicode="=" horiz-adv-x="1196" 
 />
    <glyph glyph-name="greater" unicode="&#x3e;" horiz-adv-x="1196" 
 />
    <glyph glyph-name="question" unicode="?" horiz-adv-x="2253" 
d="M812 866l-294 -1q-138 0 -175 -77q-16 -33 -16 -87l-167 5l-160 -5q0 243 171.5 367.5t346.5 120.5l602 -1q138 0 175 77q16 33 16 87q0 65 -21 94t-82 48q-72 22 -225 22h-981l-2 327h983q423 0 578 -220q77 -111 77 -271q0 -243 -171.5 -367.5t-346.5 -120.5zM165 521
q152 0 152 -152q0 -153 -159 -151q-158 3 -158 154q0 152 165 149z" />
    <glyph glyph-name="at" unicode="@" horiz-adv-x="2244" 
d="M848 1074q-32 48 -64 0l-72 -296q-48 -40 -104 -48l-92 -5q-36 3 -23 49l211 588q47 48 113 48t103 -40l168 -440h200l23 94q0 233 -152 368q-140 124 -340 124q-219 0 -355 -138.5t-136 -353.5q0 -186 101.5 -314t283.5 -167l383 3v-328l-123 -1q-73 -12 -154 -12
q-368 0 -593.5 225.5t-225.5 593.5q0 369 225 594t594 225q371 0 595 -224t224 -595q0 -185 -62 -294h-560q-64 8 -112 48z" />
    <glyph glyph-name="A" unicode="A" horiz-adv-x="2216" 
d="M872 1343l411 -1060q28 -71 101 -78l168 5q86 2 56 104l-584 1432q-48 101 -208 102q-161 2 -216 -94l-568 -1432q-32 -110 56 -117h168q72 7 99 77l405 1061q56 171 112 0z" />
    <glyph glyph-name="B" unicode="B" horiz-adv-x="2250" 
d="M952 866l-170 -2q-174 -4 -174 160q0 163 167 166l345 -2q138 0 175 77q16 33 16 87q0 65 -21 94t-82 48q-72 22 -232 26l-544 2q-104 -2 -104 -112v-768q0 -98 104 -98h544q160 2 232 15q61 19 82 48t21 94q0 54 -16 87q-37 77 -175 77zM1632 696q6 -155 -71 -266
q-155 -220 -585 -222h-440l-360 2q-176 -2 -176 176v1254q0 203 184 208h796q426 -5 581 -225q77 -111 77 -271q-14 -288 -238 -344q224 -48 232 -312z" />
    <glyph glyph-name="C" unicode="C" 
d="M1492 538q142 -2 142 -166t-142 -166l-673 -1q-368 0 -593.5 225.5t-225.5 593.5q0 369 225 594t591 230l676 2q142 2 142 -162t-138 -162l-52 -4l-628 -2q-216 -4 -352 -142.5t-136 -353.5q0 -311 252 -436q112 -56 236 -52z" />
    <glyph glyph-name="D" unicode="D" 
d="M816 1848q374 -5 598 -229t224 -595q0 -369 -225 -594t-594 -225l-699 5q-120 -2 -120 144v1368q0 126 120 128zM816 1520l-400 2q-88 -2 -88 -88v-808q0 -90 96 -88l392 -2q287 -4 426 220q69 111 69 268q0 233 -152 368q-140 124 -343 128z" />
    <glyph glyph-name="E" unicode="E" 
d="M856 864l-528 2v-210q0 -120 96 -118h1068q142 -2 142 -166t-150 -162h-404l-904 -2q-176 0 -176 192v1256q0 192 168 192l1324 2q142 2 142 -162t-138 -162h-212h-120h-740q-96 -6 -96 -118v-218h535q167 -3 167 -166q0 -164 -174 -160z" />
    <glyph glyph-name="F" unicode="F" 
d="M856 864l-528 2v-495q6 -166 -161 -164q-167 3 -167 166v1283q0 192 168 192l1324 2q142 2 142 -162t-138 -162l-152 -4h-524l-396 -2q-96 0 -96 -112v-218h535q167 -3 167 -166q0 -164 -174 -160z" />
    <glyph glyph-name="G" unicode="G" 
d="M1304 610q0 -78 -80 -72l-405 -6q-127 0 -239 56q-252 125 -252 436q0 215 136 353.5t352 142.5l600 2l80 4q138 -2 138 162t-142 162l-680 -2q-362 -5 -587 -230t-225 -594q0 -368 225.5 -593.5t593.5 -225.5l709 5q104 -2 104 112l6 714q0 164 -167 162
q-167 -3 -167 -166v-422z" />
    <glyph glyph-name="H" unicode="H" 
d="M1632 1278v402q0 163 -167 166q-167 2 -161 -164v-1311q-6 -166 161 -164q167 3 167 166v905zM0 1278v402q0 163 167 166q167 2 161 -164v-392q0 -100 84 -100h405q167 -3 167 -166q0 -164 -174 -160l-390 2q-92 0 -92 -96v-399q6 -166 -161 -164q-167 3 -167 166v905z
" />
    <glyph glyph-name="I" unicode="I" horiz-adv-x="935" 
d="M0 1278v402q0 163 167 166q167 2 161 -164v-1311q6 -166 -161 -164q-167 3 -167 166v905z" />
    <glyph glyph-name="J" unicode="J" 
d="M0 986q0 -330 225.5 -555.5t593.5 -225.5q369 0 594 225t225 594l-2 658q-4 161 -171 164q-167 2 -157 -164v-320l2 -338q1 -157 -68 -268q-139 -224 -423 -224q-127 0 -239 56q-252 125 -252 398q-40 144 -161 140q-143 4 -167 -140z" />
    <glyph glyph-name="K" unicode="K" horiz-adv-x="2250" 
d="M0 1278v402q0 163 167 166q167 2 161 -164v-1311q6 -166 -161 -164q-167 3 -167 166v905zM1308 422l3 279q0 54 -16 87q-37 77 -175 77l-362 -1q-174 -4 -174 160q0 163 167 166l369 -2q138 0 175 77q16 33 16 87l-3 330q-10 166 157 164q167 -3 171 -164l2 -330
q-14 -288 -238 -344q224 -48 232 -312v-323q0 -163 -167 -166q-161 7 -157 175v40z" />
    <glyph glyph-name="L" unicode="L" horiz-adv-x="2250" 
d="M1492 538h-612l-424 -2q-128 -3 -128 160v493v493q6 166 -161 164q-167 -3 -167 -166v-1267q0 -203 184 -208l1192 1l108 4q150 -2 150 162t-142 166z" />
    <glyph glyph-name="M" unicode="M" horiz-adv-x="3512" 
d="M766 1343l-411 -1060q-28 -71 -101 -78l-174 5q-80 2 -42 97l582 1437q42 103 202 104q161 2 201 -100l447 -1111l446 1107q42 103 202 104q161 2 201 -100l576 -1440q39 -96 -49 -103h-168q-72 7 -99 77l-405 1061q-56 176 -112 0l-392 -1010q-80 -128 -160 -128h-104
q-72 0 -144 120l-384 1018q-56 176 -112 0z" />
    <glyph glyph-name="N" unicode="N" horiz-adv-x="2253" 
d="M1636 1466l-4 -1112q4 -146 -152 -144h-88q-84 -2 -141 56l-803 840q-120 102 -120 -2v-162v-571q6 -166 -161 -164q-167 3 -167 166v501v848q0 121 112 128h80q76 -6 140 -67l868 -933q108 -62 108 50v454v328q-10 166 157 164q167 -3 171 -160v-220z" />
    <glyph glyph-name="O" unicode="O" horiz-adv-x="2246" 
d="M819 1843q371 0 595 -224t224 -595q0 -369 -225 -594t-594 -225q-368 0 -593.5 225.5t-225.5 593.5q0 369 225 594t594 225zM819 1516q-219 0 -355 -138.5t-136 -353.5q0 -311 252 -436q112 -56 239 -56q284 0 423 224q69 111 69 268q0 233 -152 368q-140 124 -340 124z
" />
    <glyph glyph-name="P" unicode="P" horiz-adv-x="2250" 
d="M0 898v742q0 203 184 208h800q422 -5 577 -225q77 -111 77 -271q0 -243 -171.5 -367.5t-346.5 -120.5h-338q-174 -4 -174 160q0 163 167 166l345 -2q138 0 175 77q16 33 16 87q0 65 -21 94t-82 48q-72 22 -228 26h-540q-112 0 -112 -120v-536v-493q6 -166 -161 -164
q-167 3 -167 166v525z" />
    <glyph glyph-name="Q" unicode="Q" horiz-adv-x="2244" 
d="M973 217q-73 -12 -154 -12q-368 0 -593.5 225.5t-225.5 593.5q0 369 225 594t594 225q371 0 595 -224t224 -595q0 -185 -59 -336l-27 -30l-264 280l23 86q0 233 -152 368q-140 124 -340 124q-219 0 -355 -138.5t-136 -353.5q0 -186 101.5 -314t283.5 -167zM1584 206h-208
q-65 -1 -120 68l-264 328q-56 72 40 68l153 -1q84 -2 135 -67l256 -320q64 -76 8 -76z" />
    <glyph glyph-name="R" unicode="R" horiz-adv-x="2250" 
d="M782 864l338 1q138 0 175 -77q16 -33 16 -87l-3 -327q-4 -164 157 -167q167 3 167 166v37v286q-8 264 -232 312q224 56 238 344q0 160 -77 271q-155 220 -581 225h-796q-184 -5 -184 -208v-1267q0 -163 167 -166q167 -2 161 164v1029q0 120 112 120h544q152 -4 224 -26
q61 -19 82 -48t21 -94q0 -54 -16 -87q-37 -77 -175 -77l-345 2q-167 -3 -167 -166q0 -164 174 -160z" />
    <glyph glyph-name="S" unicode="S" horiz-adv-x="2257" 
d="M0 1634v72q0 137 248 144h1248q142 2 142 -162t-136 -166h-950l960 -880q104 -112 126 -232l-6 -32q6 -173 -256 -168h-1222q-150 -2 -150 162t142 166h926l-935 861q-113 123 -137 235z" />
    <glyph glyph-name="T" unicode="T" horiz-adv-x="2134" 
d="M860 598v802q7 116 112 126h408q138 -2 138 162t-142 162h-148h-1054q-174 -7 -174 -170q0 -164 174 -160l254 2q104 0 104 -120v-1032q-4 -164 164 -160q172 -4 164 156v232z" />
    <glyph glyph-name="U" unicode="U" horiz-adv-x="1998" 
d="M1304 1848h328l6 -824q0 -369 -225 -594t-594 -225q-368 0 -593.5 225.5t-225.5 593.5v824h328v-824q0 -311 252 -436q112 -56 239 -56q284 0 423 224q69 111 69 268z" />
    <glyph glyph-name="V" unicode="V" horiz-adv-x="2208" 
d="M872 712l411 1060q28 71 101 78l168 -5q86 -2 56 -104l-584 -1432q-48 -101 -208 -102q-161 -2 -216 94l-568 1432q-32 110 56 117h168q72 -7 99 -77l405 -1061q56 -171 112 0z" />
    <glyph glyph-name="W" unicode="W" horiz-adv-x="3512" 
d="M2168 712l411 1060q28 71 101 78l172 -7q82 0 44 -95l-582 -1437q-42 -103 -202 -104q-161 -2 -201 100l-447 1111l-446 -1107q-42 -103 -202 -104q-161 -2 -201 100l-576 1440q-39 96 49 103h168q72 -7 99 -77l405 -1061q56 -176 112 0l392 1010q80 128 160 128h104
q72 0 144 -120l384 -1018q56 -176 112 0z" />
    <glyph glyph-name="X" unicode="X" horiz-adv-x="2207" 
d="M748 1366q56 -60 112 0l288 380q60 104 188 104h144q158 -7 83 -104l-475 -611q-48 -63 2 -135l474 -687q74 -108 -76 -103h-120q-120 -2 -200 105l-301 404q-43 57 -87 -1l-307 -404q-81 -106 -217 -104h-104q-128 24 -46 141l432 597q62 86 1 169l-433 587
q-82 117 46 141h104q136 2 217 -104z" />
    <glyph glyph-name="Y" unicode="Y" horiz-adv-x="2050" 
d="M960 670v-300q4 -164 -168 -160q-168 -4 -160 164v632q-44 56 -93 111l-433 587q-82 117 46 141h104q136 2 217 -104l275 -375q56 -60 112 0l288 380q60 104 188 104h144q158 -7 83 -104l-475 -611q-48 -63 -128 -129v-336z" />
    <glyph glyph-name="Z" unicode="Z" horiz-adv-x="2249" 
d="M1632 1650v72q6 121 -144 128h-1346q-142 2 -142 -162t136 -158h944l-936 -880q-120 -112 -144 -240v-80q0 -125 120 -120h1364q150 -2 150 162t-142 166h-924l933 861q107 147 131 251z" />
    <glyph glyph-name="bracketleft" unicode="[" horiz-adv-x="1094" 
d="M496 538v-328l-320 -2q-176 0 -176 192v1256q0 192 168 192l328 2v-320l-72 -4q-96 -6 -96 -118v-752q0 -120 96 -118h72z" />
    <glyph glyph-name="backslash" unicode="\" horiz-adv-x="2207" 
d="M326 1850q128 0 188 -104l1042 -1395q82 -117 -46 -141h-104q-136 -2 -217 104l-1090 1432q-75 97 83 104h144z" />
    <glyph glyph-name="bracketright" unicode="]" horiz-adv-x="1094" 
d="M0 538v-328l320 -2q176 0 176 192v1256q0 192 -168 192l-328 2v-320l72 -4q96 -6 96 -118v-752q0 -120 -96 -118h-72z" />
    <glyph glyph-name="asciicircum" unicode="^" horiz-adv-x="961" 
 />
    <glyph glyph-name="underscore" unicode="_" horiz-adv-x="1675" 
d="M-31 -207v266h1720v-266h-1720z" />
    <glyph glyph-name="grave" unicode="`" horiz-adv-x="682" 
 />
    <glyph glyph-name="a" unicode="a" horiz-adv-x="2216" 
d="M872 1343l411 -1060q28 -71 101 -78l168 5q86 2 56 104l-584 1432q-48 101 -208 102q-161 2 -216 -94l-568 -1432q-32 -110 56 -117h168q72 7 99 77l405 1061q56 171 112 0z" />
    <glyph glyph-name="b" unicode="b" horiz-adv-x="2250" 
d="M952 866l-170 -2q-174 -4 -174 160q0 163 167 166l345 -2q138 0 175 77q16 33 16 87q0 65 -21 94t-82 48q-72 22 -232 26l-544 2q-104 -2 -104 -112v-768q0 -98 104 -98h544q160 2 232 15q61 19 82 48t21 94q0 54 -16 87q-37 77 -175 77zM1632 696q6 -155 -71 -266
q-155 -220 -585 -222h-440l-360 2q-176 -2 -176 176v1254q0 203 184 208h796q426 -5 581 -225q77 -111 77 -271q-14 -288 -238 -344q224 -48 232 -312z" />
    <glyph glyph-name="c" unicode="c" 
d="M1492 538q142 -2 142 -166t-142 -166l-673 -1q-368 0 -593.5 225.5t-225.5 593.5q0 369 225 594t591 230l676 2q142 2 142 -162t-138 -162l-52 -4l-628 -2q-216 -4 -352 -142.5t-136 -353.5q0 -311 252 -436q112 -56 236 -52z" />
    <glyph glyph-name="d" unicode="d" 
d="M816 1848q374 -5 598 -229t224 -595q0 -369 -225 -594t-594 -225l-699 5q-120 -2 -120 144v1368q0 126 120 128zM816 1520l-400 2q-88 -2 -88 -88v-808q0 -90 96 -88l392 -2q287 -4 426 220q69 111 69 268q0 233 -152 368q-140 124 -343 128z" />
    <glyph glyph-name="e" unicode="e" 
d="M856 864l-528 2v-210q0 -120 96 -118h1068q142 -2 142 -166t-150 -162h-404l-904 -2q-176 0 -176 192v1256q0 192 168 192l1324 2q142 2 142 -162t-138 -162h-212h-120h-740q-96 -6 -96 -118v-218h535q167 -3 167 -166q0 -164 -174 -160z" />
    <glyph glyph-name="f" unicode="f" 
d="M856 864l-528 2v-495q6 -166 -161 -164q-167 3 -167 166v1283q0 192 168 192l1324 2q142 2 142 -162t-138 -162l-152 -4h-524l-396 -2q-96 0 -96 -112v-218h535q167 -3 167 -166q0 -164 -174 -160z" />
    <glyph glyph-name="g" unicode="g" 
d="M1304 610q0 -78 -80 -72l-405 -6q-127 0 -239 56q-252 125 -252 436q0 215 136 353.5t352 142.5l600 2l80 4q138 -2 138 162t-142 162l-680 -2q-362 -5 -587 -230t-225 -594q0 -368 225.5 -593.5t593.5 -225.5l709 5q104 -2 104 112l6 714q0 164 -167 162
q-167 -3 -167 -166v-422z" />
    <glyph glyph-name="h" unicode="h" 
d="M0 1278v402q0 163 167 166q167 2 161 -164v-1311q6 -166 -161 -164q-167 3 -167 166v905zM1632 1278v402q0 163 -167 166q-167 2 -161 -164v-392q0 -100 -84 -100h-405q-167 -3 -167 -166q0 -164 174 -160l390 2q92 0 92 -96v-399q-6 -166 161 -164q167 3 167 166v905z
" />
    <glyph glyph-name="i" unicode="i" horiz-adv-x="935" 
d="M0 1278v402q0 163 167 166q167 2 161 -164v-1311q6 -166 -161 -164q-167 3 -167 166v905z" />
    <glyph glyph-name="j" unicode="j" horiz-adv-x="2262" 
d="M0 970q0 -314 225.5 -539.5t593.5 -225.5q369 0 594 225t225 594l-2 658q-4 161 -171 164q-167 2 -157 -164v-320l2 -338q1 -157 -68 -268q-139 -224 -423 -224q-127 0 -239 56q-252 125 -252 382q-48 128 -168 136q-136 -8 -160 -136z" />
    <glyph glyph-name="k" unicode="k" horiz-adv-x="2250" 
d="M0 1278v402q0 163 167 166q167 2 161 -164v-1311q6 -166 -161 -164q-167 3 -167 166v905zM1308 422l3 279q0 54 -16 87q-37 77 -175 77l-362 -1q-174 -4 -174 160q0 163 167 166l369 -2q138 0 175 77q16 33 16 87l-3 330q-10 166 157 164q167 -3 171 -164l2 -330
q-14 -288 -238 -344q224 -48 232 -312v-323q0 -163 -167 -166q-161 7 -157 175v40z" />
    <glyph glyph-name="l" unicode="l" horiz-adv-x="2250" 
d="M1492 538h-612l-424 -2q-128 -3 -128 160v493v493q6 166 -161 164q-167 -3 -167 -166v-1267q0 -203 184 -208l1192 1l108 4q150 -2 150 162t-142 166z" />
    <glyph glyph-name="m" unicode="m" horiz-adv-x="3520" 
d="M2168 1343l411 -1060q28 -71 101 -78l172 7q82 0 44 95l-582 1437q-42 103 -202 104q-161 2 -201 -100l-447 -1111l-446 1107q-42 103 -202 104q-161 2 -201 -100l-576 -1440q-39 -96 49 -103h168q72 7 99 77l405 1061q56 176 112 0l392 -1010q80 -128 160 -128h104
q72 0 144 120l384 1018q56 176 112 0z" />
    <glyph glyph-name="n" unicode="n" horiz-adv-x="2253" 
d="M1636 1466l-4 -1112q4 -146 -152 -144h-88q-84 -2 -141 56l-803 840q-120 102 -120 -2v-162v-571q6 -166 -161 -164q-167 3 -167 166v501v848q0 121 112 128h80q76 -6 140 -67l868 -933q108 -62 108 50v454v328q-10 166 157 164q167 -3 171 -160v-220z" />
    <glyph glyph-name="o" unicode="o" horiz-adv-x="2246" 
d="M819 1843q371 0 595 -224t224 -595q0 -369 -225 -594t-594 -225q-368 0 -593.5 225.5t-225.5 593.5q0 369 225 594t594 225zM819 1516q-219 0 -355 -138.5t-136 -353.5q0 -311 252 -436q112 -56 239 -56q284 0 423 224q69 111 69 268q0 233 -152 368q-140 124 -340 124z
" />
    <glyph glyph-name="p" unicode="p" horiz-adv-x="2250" 
d="M0 898v742q0 203 184 208h800q422 -5 577 -225q77 -111 77 -271q0 -243 -171.5 -367.5t-346.5 -120.5h-338q-174 -4 -174 160q0 163 167 166l345 -2q138 0 175 77q16 33 16 87q0 65 -21 94t-82 48q-72 22 -228 26h-540q-112 0 -112 -120v-536v-493q6 -166 -161 -164
q-167 3 -167 166v525z" />
    <glyph glyph-name="q" unicode="q" horiz-adv-x="2244" 
d="M973 217q-73 -12 -154 -12q-368 0 -593.5 225.5t-225.5 593.5q0 369 225 594t594 225q371 0 595 -224t224 -595q0 -185 -59 -336l-27 -30l-264 280l23 86q0 233 -152 368q-140 124 -340 124q-219 0 -355 -138.5t-136 -353.5q0 -186 101.5 -314t283.5 -167zM1584 206h-208
q-65 -1 -120 68l-264 328q-56 72 40 68l153 -1q84 -2 135 -67l256 -320q64 -76 8 -76z" />
    <glyph glyph-name="r" unicode="r" horiz-adv-x="2250" 
d="M782 864l338 1q138 0 175 -77q16 -33 16 -87l-3 -327q-4 -164 157 -167q167 3 167 166v37v286q-8 264 -232 312q224 56 238 344q0 160 -77 271q-155 220 -581 225h-796q-184 -5 -184 -208v-1267q0 -163 167 -166q167 -2 161 164v1029q0 120 112 120h544q152 -4 224 -26
q61 -19 82 -48t21 -94q0 -54 -16 -87q-37 -77 -175 -77l-345 2q-167 -3 -167 -166q0 -164 174 -160z" />
    <glyph glyph-name="s" unicode="s" horiz-adv-x="2253" 
d="M792 1190l-274 -2q-138 0 -175 77q-16 33 -16 87q0 65 21 94t82 48q72 22 222 32h844q138 -2 138 162t-150 158h-64l-765 -3q-423 0 -578 -220q-77 -111 -77 -271q0 -243 171.5 -367.5t346.5 -120.5l602 1q138 0 175 -77q16 -33 16 -87q0 -65 -21 -94t-82 -48
q-72 -22 -228 -21h-548h-290q-142 -2 -142 -166t150 -162h826q430 0 585 220q77 111 77 271q0 243 -171.5 367.5t-346.5 120.5z" />
    <glyph glyph-name="t" unicode="t" horiz-adv-x="2134" 
d="M658 598v802q-7 116 -112 126h-408q-138 -2 -138 162t142 162h148h1054q174 -7 174 -170q0 -164 -174 -160l-254 2q-104 0 -104 -120v-1032q4 -164 -164 -160q-172 -4 -164 156v232z" />
    <glyph glyph-name="u" unicode="u" 
d="M1636 1638l-4 42q0 163 -167 166q-167 2 -161 -164v-652q7 -163 -62 -274q-139 -224 -423 -224q-127 0 -239 56q-252 125 -252 436v658q6 166 -161 164q-167 -3 -167 -166v-656q0 -368 225.5 -593.5t593.5 -225.5q369 0 594 225t225 594z" />
    <glyph glyph-name="v" unicode="v" horiz-adv-x="2208" 
d="M872 712l411 1060q28 71 101 78l168 -5q86 -2 56 -104l-584 -1432q-48 -101 -208 -102q-161 -2 -216 94l-568 1432q-32 110 56 117h168q72 -7 99 -77l405 -1061q56 -171 112 0z" />
    <glyph glyph-name="w" unicode="w" horiz-adv-x="3520" 
d="M2168 712l411 1060q28 71 101 78l172 -7q82 0 44 -95l-582 -1437q-42 -103 -202 -104q-161 -2 -201 100l-447 1111l-446 -1107q-42 -103 -202 -104q-161 -2 -201 100l-576 1440q-39 96 49 103h168q72 -7 99 -77l405 -1061q56 -176 112 0l392 1010q80 128 160 128h104
q72 0 144 -120l384 -1018q56 -176 112 0z" />
    <glyph glyph-name="x" unicode="x" horiz-adv-x="2207" 
d="M748 1366q56 -60 112 0l288 380q60 104 188 104h144q158 -7 83 -104l-475 -611q-48 -63 2 -135l474 -687q74 -108 -76 -103h-120q-120 -2 -200 105l-301 404q-43 57 -87 -1l-307 -404q-81 -106 -217 -104h-104q-128 24 -46 141l432 597q62 86 1 169l-433 587
q-82 117 46 141h104q136 2 217 -104z" />
    <glyph glyph-name="y" unicode="y" horiz-adv-x="2050" 
d="M960 670v-300q4 -164 -168 -160q-168 -4 -160 164v632q-44 56 -93 111l-433 587q-82 117 46 141h104q136 2 217 -104l275 -375q56 -60 112 0l288 380q60 104 188 104h144q158 -7 83 -104l-475 -611q-48 -63 -128 -129v-336z" />
    <glyph glyph-name="z" unicode="z" horiz-adv-x="2249" 
d="M1632 1650v72q6 121 -144 128h-1346q-142 2 -142 -162t136 -158h944l-936 -880q-120 -112 -144 -240v-80q0 -125 120 -120h1364q150 -2 150 162t-142 166h-924l933 861q107 147 131 251z" />
    <glyph glyph-name="braceleft" unicode="{" horiz-adv-x="1094" 
d="M496 538v-328l-320 -2q-176 0 -176 192v1256q0 192 168 192l328 2v-320l-72 -4q-96 -6 -96 -118v-752q0 -120 96 -118h72z" />
    <glyph glyph-name="bar" unicode="|" horiz-adv-x="911" 
d="M0 1354v496q0 200 158 202q159 3 154 -200v-1617q5 -205 -154 -202q-158 3 -158 205v1116z" />
    <glyph glyph-name="braceright" unicode="}" horiz-adv-x="1094" 
d="M0 538v-328l320 -2q176 0 176 192v1256q0 192 -168 192l-328 2v-320l72 -4q96 -6 96 -118v-752q0 -120 -96 -118h-72z" />
    <glyph glyph-name="asciitilde" unicode="~" horiz-adv-x="1196" 
 />
    <glyph glyph-name="icircumflex" unicode="&#xa6;" horiz-adv-x="532" 
d="M345 1491v-790h-157v790h157zM345 360v-791h-157v791h157z" />
    <glyph glyph-name="Aring" unicode="&#xa8;" horiz-adv-x="682" 
d="M61 1270v205h188v-205h-188zM434 1270v205h188v-205h-188z" />
    <glyph glyph-name="ntilde" unicode="&#xaf;" horiz-adv-x="1131" 
d="M-31 1566v129h1193v-129h-1193z" />
    <glyph glyph-name="Eacute" unicode="&#xb1;" horiz-adv-x="1124" 
 />
    <glyph glyph-name="Adieresis" unicode="&#xb4;" horiz-adv-x="682" 
 />
    <glyph glyph-name="aring" unicode="&#xb7;" horiz-adv-x="569" 
d="M185 619v205h205v-205h-205z" />
    <glyph glyph-name="aring" unicode="&#x2219;" horiz-adv-x="569" 
d="M185 619v205h205v-205h-205z" />
    <glyph glyph-name="idieresis" unicode="&#xd7;" horiz-adv-x="1196" 
d="M161 409l315 315l-314 314l122 122l314 -314l313 313l120 -121l-312 -313l314 -314l-122 -122l-314 314l-315 -315z" />
    <glyph glyph-name="Ccedilla" unicode="&#xd8;" horiz-adv-x="1593" 
 />
    <glyph glyph-name="atilde" unicode="&#xf7;" horiz-adv-x="1124" 
 />
    <glyph glyph-name="Ntilde" unicode="&#xf8;" horiz-adv-x="1251" 
 />
    <glyph glyph-name="ecircumflex" unicode="&#x2c6;" horiz-adv-x="682" 
 />
    <glyph glyph-name="edieresis" unicode="&#x2dc;" horiz-adv-x="682" 
 />
    <glyph glyph-name="Odieresis" unicode="&#x2013;" horiz-adv-x="1139" 
d="M-4 458v145h1139v-145h-1139z" />
    <glyph glyph-name="Udieresis" unicode="&#x2014;" horiz-adv-x="2048" 
d="M0 458v145h2048v-145h-2048z" />
    <glyph glyph-name="acircumflex" unicode="&#x2018;" horiz-adv-x="934" 
d="M165 1849q152 0 152 -152l-29 -143q-256 -616 -152 -8q-136 3 -136 154q0 152 165 149z" />
    <glyph glyph-name="adieresis" unicode="&#x2019;" horiz-adv-x="934" 
d="M165 1849q152 0 152 -152l-29 -143q-256 -616 -152 -8q-136 3 -136 154q0 152 165 149z" />
    <glyph glyph-name="ccedilla" unicode="&#x201a;" horiz-adv-x="918" 
d="M165 521q152 0 152 -152l-29 -143q-256 -616 -152 -8q-136 3 -136 154q0 152 165 149z" />
    <glyph glyph-name="aacute" unicode="&#x201c;" horiz-adv-x="1462" 
d="M717 1849q152 0 152 -152l-29 -143q-256 -616 -152 -8q-136 3 -136 154q0 152 165 149zM165 1849q152 0 152 -152l-29 -143q-256 -616 -152 -8q-136 3 -136 154q0 152 165 149z" />
    <glyph glyph-name="agrave" unicode="&#x201d;" horiz-adv-x="1462" 
d="M717 1849q152 0 152 -152l-29 -143q-256 -616 -152 -8q-136 3 -136 154q0 152 165 149zM165 1849q152 0 152 -152l-29 -143q-256 -616 -152 -8q-136 3 -136 154q0 152 165 149z" />
    <glyph glyph-name="eacute" unicode="&#x201e;" horiz-adv-x="1462" 
d="M717 1849q152 0 152 -152l-29 -143q-256 -616 -152 -8q-136 3 -136 154q0 152 165 149zM165 1849q152 0 152 -152l-29 -143q-256 -616 -152 -8q-136 3 -136 154q0 152 165 149z" />
    <glyph glyph-name="egrave" horiz-adv-x="569" 
d="M198 0v1062h180v-1062h-180z" />
    <glyph glyph-name="iacute" horiz-adv-x="682" 
d="M162 1338q0 73 53.5 126t126.5 53q74 0 127 -53.5t53 -129.5q0 -77 -53 -130t-126 -53q-75 0 -128 53.5t-53 133.5zM238 1337q0 -47 31.5 -79t74.5 -32t74.5 32t31.5 77t-31 77t-75 32q-43 0 -74.5 -31.5t-31.5 -75.5z" />
    <glyph glyph-name="igrave" horiz-adv-x="682" 
 />
    </font>
</defs>
</svg>
