<?xml version="1.0" encoding="utf-8"?>
<!-- Generator: Adobe Illustrator 27.7.0, SVG Export Plug-In . SVG Version: 6.00 Build 0)  -->
<svg version="1.0" id="Layer_1" xmlns="http://www.w3.org/2000/svg" xmlns:xlink="http://www.w3.org/1999/xlink" x="0px" y="0px"
	 viewBox="0 0 500 317.98" style="enable-background:new 0 0 500 317.98;" xml:space="preserve">
<style type="text/css">
	.st0{fill:#231F20;}
	.st1{fill:#050505;}
	.st2{fill:#e7b700;stroke:#231F20;stroke-miterlimit:10;}
	.st3{fill:url(#SVGID_1_);}
	.st4{display:none;opacity:0.3;}
	.st5{display:inline;fill:none;stroke:#FFFFFF;stroke-width:0.25;stroke-miterlimit:10;}
	.st6{display:none;opacity:0.6;fill:none;stroke:#231F20;stroke-miterlimit:10;enable-background:new    ;}
	.st7{fill:none;stroke:#FFFFFF;stroke-miterlimit:10;}
	.st8{fill:#FFFFFF;}
	.st9{fill:#F7941D;}
</style>
<path class="st0" d="M25.63,207.4H15.36v-20.69h10.26c10.37,0,17.96-2.62,22.76-7.86s7.2-13.6,7.2-25.08V88.38h20.69v65.39
	c0,18.32-4.3,31.84-12.91,40.56C54.76,203.05,42.18,207.4,25.63,207.4z"/>
<path class="st0" d="M137.32,93.68c1.54-2.21,3.34-3.78,5.38-4.72c2.04-0.94,4.22-1.41,6.54-1.41c2.65,0,4.77,0.94,6.37,2.81
	c1.6,1.88,2.4,4.36,2.4,7.45V207.4h-20.69v-80.46L86.33,207.4H61.66L137.32,93.68z"/>
<path class="st0" d="M56.66,300.32c-6.17,0-11.82-1.07-16.95-3.22s-9.56-5.12-13.28-8.91s-6.61-8.26-8.68-13.39
	c-2.06-5.13-3.09-10.69-3.09-16.67c0-5.98,1.01-11.44,3.03-16.38s4.9-9.2,8.62-12.76s8.15-6.34,13.28-8.34
	c5.13-1.99,10.82-2.99,17.06-2.99H68.8v14.37H56.66c-3.93,0-7.6,0.69-10.99,2.07c-3.39,1.38-6.3,3.28-8.73,5.69
	s-4.34,5.29-5.73,8.62s-2.08,6.95-2.08,10.86c0,3.91,0.67,7.49,2.02,10.75s3.24,6.05,5.67,8.39c2.43,2.34,5.32,4.18,8.68,5.52
	c3.35,1.34,7.07,2.01,11.16,2.01h12.15v14.37H56.66V300.32z"/>
<path class="st0" d="M127.99,221.35c1.08-1.53,2.33-2.62,3.76-3.28c1.43-0.65,2.95-0.98,4.57-0.98c1.85,0,3.33,0.65,4.45,1.95
	c1.12,1.31,1.68,3.03,1.68,5.17v76.11h-14.46v-55.87l-35.63,55.87H75.13L127.99,221.35z"/>
<path class="st0" d="M266.95,300.32h-17.24l-35.63-55.87v46.44c0,2.76-0.94,5.02-2.83,6.78c-1.89,1.77-4.07,2.64-6.54,2.64
	c-1.46,0-2.91-0.34-4.34-1.04c-1.43-0.69-2.76-1.99-3.99-3.91l-32.39-50.93v55.87h-14.46v-76.11c0-2.14,0.56-3.87,1.68-5.17
	s2.6-1.95,4.45-1.95c1.62,0,3.14,0.33,4.57,0.98c1.43,0.65,2.68,1.74,3.76,3.28l35.63,53.23v-50.35c0-2.14,0.56-3.87,1.68-5.17
	s2.6-1.95,4.45-1.95c1.62,0,3.14,0.33,4.57,0.98c1.43,0.65,2.68,1.74,3.76,3.28L266.95,300.32z"/>
<path class="st0" d="M272.37,46.01h-22.63L222.1,87.56l0,0l-19.73,31.15l-10.94,17.27l-5.73,9.04V87.56h-20.69v119.86h20.69v-23.24
	c0-3.84,1.14-7.6,3.27-10.8l13.4-20.13l11.47-17.27l32.21-48.42l0,0l19.73-31.15L272.37,46.01z"/>
<g>
	<circle class="st1" cx="355.91" cy="178.7" r="7.01"/>
	<path class="st0" d="M263.28,87.38c0.49-1.08,0.76-2.28,0.76-3.55c0-3.87-2.57-7.14-6.1-8.19c11.22-1.99,20.49-9.62,24.77-19.86
		c-0.01,0.16-0.02,0.34-0.02,0.5c0,4.73,3.82,8.55,8.54,8.55c0.79,0,1.55-0.1,2.28-0.31C282.34,70.65,272.15,78.37,263.28,87.38z"/>
	<path class="st0" d="M355.91,48.61c-18.39,0-35.88,3.82-51.73,10.69c-2.51,1.08-4.97,2.25-7.39,3.49
		c-1.09,0.56-2.19,1.14-3.27,1.73c-11.18,6.12-21.37,13.84-30.24,22.85c-1.3,1.31-2.57,2.65-3.81,4.02
		c-0.6,0.66-1.19,1.33-1.78,1.99c-19.85,22.83-31.87,52.67-31.87,85.3c0,71.84,58.24,130.09,130.09,130.09S486,250.54,486,178.7
		S427.76,48.61,355.91,48.61z M355.91,181.87c-1.75,0-3.17-1.42-3.17-3.17s1.42-3.17,3.17-3.17s3.17,1.42,3.17,3.17
		C359.09,180.45,357.67,181.87,355.91,181.87z"/>
	<path class="st0" d="M355.91,48.61c-18.39,0-35.88,3.82-51.73,10.69c-2.51,1.08-4.97,2.25-7.39,3.49
		c-1.09,0.56-2.19,1.14-3.27,1.73c-11.18,6.12-21.37,13.84-30.24,22.85c-1.3,1.31-2.57,2.65-3.81,4.02
		c-0.6,0.66-1.19,1.33-1.78,1.99c-19.85,22.83-31.87,52.67-31.87,85.3c0,71.84,58.24,130.09,130.09,130.09S486,250.54,486,178.7
		S427.76,48.61,355.91,48.61z M355.91,181.87c-1.75,0-3.17-1.42-3.17-3.17s1.42-3.17,3.17-3.17s3.17,1.42,3.17,3.17
		C359.09,180.45,357.67,181.87,355.91,181.87z"/>
	<path class="st2" d="M355.91,137.19c-22.92,0-41.51,18.58-41.51,41.51s18.58,41.51,41.51,41.51s41.51-18.58,41.51-41.51
		S378.84,137.19,355.91,137.19z M355.91,181.87c-1.75,0-3.18-1.42-3.18-3.18c0-1.75,1.42-3.18,3.18-3.18c1.75,0,3.18,1.42,3.18,3.18
		S357.67,181.87,355.91,181.87z"/>
	<g>
		<linearGradient id="SVGID_1_" gradientUnits="userSpaceOnUse" x1="356.3821" y1="117.6165" x2="355.4266" y2="241.2444">
			<stop  offset="0.3802" style="stop-color:#000000"/>
			<stop  offset="0.5225" style="stop-color:#E0E1E2"/>
			<stop  offset="0.5331" style="stop-color:#BABABB"/>
			<stop  offset="0.5453" style="stop-color:#979697"/>
			<stop  offset="0.559" style="stop-color:#777677"/>
			<stop  offset="0.5741" style="stop-color:#5D5A5B"/>
			<stop  offset="0.5912" style="stop-color:#474445"/>
			<stop  offset="0.6111" style="stop-color:#373334"/>
			<stop  offset="0.6358" style="stop-color:#2B2829"/>
			<stop  offset="0.6704" style="stop-color:#252122"/>
			<stop  offset="0.7665" style="stop-color:#231F20"/>
		</linearGradient>
		<path class="st3" d="M355.91,116.88c-34.14,0-61.82,27.68-61.82,61.82s27.68,61.82,61.82,61.82c34.14,0,61.82-27.68,61.82-61.82
			S390.05,116.88,355.91,116.88z M355.91,218.55c-22.01,0-39.85-17.84-39.85-39.85c0-22.01,17.84-39.85,39.85-39.85
			c22.01,0,39.85,17.84,39.85,39.85C395.76,200.71,377.92,218.55,355.91,218.55z"/>
	</g>
	<g class="st4">
		<circle class="st5" cx="355.91" cy="178.7" r="126.18"/>
		<circle class="st5" cx="355.91" cy="178.7" r="123.39"/>
		<circle class="st5" cx="355.91" cy="178.7" r="120.6"/>
		<circle class="st5" cx="355.91" cy="178.7" r="117.8"/>
		<circle class="st5" cx="355.91" cy="178.7" r="115.01"/>
		<circle class="st5" cx="355.91" cy="178.7" r="112.21"/>
		<circle class="st5" cx="355.91" cy="178.7" r="109.42"/>
		<circle class="st5" cx="355.91" cy="178.7" r="106.62"/>
		<circle class="st5" cx="355.91" cy="178.7" r="103.83"/>
		<circle class="st5" cx="355.91" cy="178.7" r="101.03"/>
		<circle class="st5" cx="355.91" cy="178.7" r="98.24"/>
		<circle class="st5" cx="355.91" cy="178.7" r="95.45"/>
		<circle class="st5" cx="355.91" cy="178.7" r="92.65"/>
		<circle class="st5" cx="355.91" cy="178.7" r="89.86"/>
		<circle class="st5" cx="355.91" cy="178.7" r="87.06"/>
		<circle class="st5" cx="355.91" cy="178.7" r="84.27"/>
		<circle class="st5" cx="355.91" cy="178.7" r="81.47"/>
		<circle class="st5" cx="355.91" cy="178.7" r="78.68"/>
		<circle class="st5" cx="355.91" cy="178.7" r="75.88"/>
		<circle class="st5" cx="355.91" cy="178.7" r="73.09"/>
		<circle class="st5" cx="355.91" cy="178.7" r="70.29"/>
		<circle class="st5" cx="355.91" cy="178.7" r="67.5"/>
		<circle class="st5" cx="355.91" cy="178.7" r="64.71"/>
		<circle class="st5" cx="355.91" cy="178.7" r="61.91"/>
		<circle class="st5" cx="355.91" cy="178.7" r="59.12"/>
		<circle class="st5" cx="355.91" cy="178.7" r="56.32"/>
	</g>
	<circle class="st6" cx="355.91" cy="178.7" r="115.8"/>
	<circle class="st6" cx="355.91" cy="178.7" r="101.54"/>
	<circle class="st6" cx="355.91" cy="178.7" r="85.86"/>
	<circle class="st6" cx="355.91" cy="178.7" r="69.45"/>
	<circle class="st7" cx="355.91" cy="178.7" r="127.38"/>
	<circle class="st7" cx="355.91" cy="178.7" r="39.85"/>
	<path class="st0" d="M285.26,43.03c0,2.92-0.38,5.76-1.09,8.46c-0.38,1.47-0.88,2.91-1.45,4.29
		c-4.28,10.24-13.55,17.87-24.77,19.86c-1.89,0.34-3.83,0.51-5.82,0.51h-0.37c-3.2-0.03-6.29-0.53-9.2-1.4
		C228.92,70.65,219,57.99,219,43.03c0-18.3,14.83-33.13,33.13-33.13S285.26,24.73,285.26,43.03z"/>
	
		<ellipse transform="matrix(0.2298 -0.9732 0.9732 0.2298 152.3332 278.5213)" class="st8" cx="252.13" cy="43.02" rx="26.45" ry="26.45"/>
	<circle class="st9" cx="252.13" cy="43.02" r="19.22"/>
	
		<ellipse transform="matrix(0.2298 -0.9732 0.9732 0.2298 152.3332 278.5213)" class="st0" cx="252.13" cy="43.02" rx="11.48" ry="11.48"/>
	<g>
		<g>
			<path class="st0" d="M227.86,44.81c30.15,4.57,60.23-2.39,89.16-10.47c14.56-4.07,29.07-8.89,44.03-11.3
				c14.03-2.26,28.15-1.26,41.89,2.26c15.5,3.97,30.13,10.65,44.22,18.12c2.84,1.5,5.37-2.81,2.52-4.32
				c-25.15-13.31-53.11-24.67-82.13-21.89c-15.18,1.45-29.81,6.05-44.41,10.21c-14.57,4.15-29.19,8.2-44.11,10.9
				c-16.4,2.96-33.31,4.19-49.85,1.68c-1.33-0.2-2.69,0.34-3.08,1.75C225.79,42.92,226.52,44.61,227.86,44.81L227.86,44.81z"/>
		</g>
	</g>
	<path class="st0" d="M231.07,48.7l-9.71,5.67c-4.44,2.59-10.01-0.6-10.02-5.74l-0.02-11.3c-0.01-5.14,5.55-8.35,10-5.78l9.73,5.63
		C235.47,39.74,235.48,46.12,231.07,48.7z"/>
	<path class="st0" d="M468.22,45.27l-5.59-5.86c-0.4-0.35-0.87-0.6-1.38-0.72l-15.19-3.75c-0.52-0.13-1.04-0.12-1.54-0.01
		l-10.19-3.96c-1.26-0.49-2.69,0.03-3.32,1.21L430.56,33c-0.63,1.18-0.28,2.65,0.83,3.44l8.96,6.34c0.04,0.03,0.09,0.05,0.13,0.08
		c0.19,0.43,0.46,0.82,0.83,1.14l11.75,10.34c0.4,0.35,0.87,0.6,1.38,0.72l8,1.25c1.45,0.36,2.95-0.31,3.64-1.62l2.88-5.51
		C469.65,47.87,469.34,46.26,468.22,45.27z"/>
	<g>
		<g>
			<path class="st0" d="M462.45,35.7c-1.64,3.12-3.28,6.24-4.92,9.36c-0.46,0.87-0.25,2.08,0.67,2.57c0.86,0.46,2.08,0.25,2.57-0.67
				c1.64-3.12,3.28-6.24,4.92-9.36c0.46-0.87,0.25-2.08-0.67-2.57C464.15,34.57,462.94,34.77,462.45,35.7L462.45,35.7z"/>
		</g>
	</g>
</g>
</svg>
